<?xml version="1.0" encoding="iso-8859-1"?>
<!-- Generator: Adobe Illustrator 19.0.0, SVG Export Plug-In . SVG Version: 6.00 Build 0)  -->
<svg version="1.1" id="Layer_1" xmlns="http://www.w3.org/2000/svg" xmlns:xlink="http://www.w3.org/1999/xlink" x="0px" y="0px"
	 viewBox="0 0 512 512" style="enable-background:new 0 0 512 512;" xml:space="preserve">
<g>
	<g>
		<g>
			<path d="M501.801,188.484h-45.472c-3.045-9.044-6.703-17.877-10.931-26.398l32.153-32.153c3.983-3.983,3.983-10.441,0-14.424
				l-81.059-81.059c-3.983-3.983-10.442-3.983-14.424,0l-32.153,32.153c-8.521-4.228-17.356-7.886-26.398-10.932V10.199
				C323.517,4.566,318.951,0,313.318,0H198.684c-5.633,0-10.199,4.566-10.199,10.199v45.473
				c-9.042,3.045-17.876,6.703-26.398,10.932l-32.153-32.153c-3.983-3.983-10.442-3.983-14.424,0L34.451,115.51
				c-3.983,3.983-3.983,10.441,0,14.424l32.153,32.153c-4.228,8.521-7.886,17.355-10.932,26.398H10.199
				C4.566,188.484,0,193.051,0,198.684v114.633c0,5.633,4.566,10.199,10.199,10.199h45.473c3.045,9.043,6.703,17.877,10.932,26.398
				l-32.153,32.153c-3.983,3.983-3.983,10.441,0,14.424l81.059,81.059c3.983,3.983,10.442,3.983,14.424,0l32.153-32.153
				c8.521,4.228,17.356,7.886,26.398,10.932v45.473c0,5.633,4.566,10.199,10.199,10.199h114.633c5.633,0,10.199-4.566,10.199-10.199
				v-45.472c9.042-3.045,17.876-6.703,26.398-10.931l32.153,32.153c3.983,3.983,10.442,3.983,14.424,0l81.059-81.059
				c3.983-3.983,3.983-10.441,0-14.424l-32.153-32.153c4.228-8.52,7.886-17.354,10.932-26.398h45.473
				c5.633,0,10.199-4.566,10.199-10.199V198.684C512,193.051,507.434,188.484,501.801,188.484z M491.602,303.116h-42.739
				c-4.515,0-8.493,2.969-9.778,7.298c-3.767,12.692-8.861,24.993-15.144,36.563c-2.155,3.97-1.442,8.885,1.751,12.079
				l30.222,30.222l-66.634,66.634l-30.222-30.222c-3.195-3.194-8.11-3.906-12.079-1.751c-11.574,6.283-23.875,11.378-36.563,15.144
				c-4.329,1.285-7.298,5.263-7.298,9.778v42.741h-94.234v-42.738c0-4.515-2.969-8.493-7.298-9.778
				c-12.689-3.766-24.99-8.86-36.563-15.144c-3.97-2.154-8.884-1.442-12.079,1.751l-30.222,30.222l-66.634-66.634l30.222-30.222
				c3.194-3.194,3.906-8.109,1.751-12.079c-6.283-11.573-11.378-23.874-15.144-36.563c-1.285-4.329-5.263-7.298-9.778-7.298H20.398
				v-94.236h42.738c4.515,0,8.493-2.969,9.778-7.298c3.766-12.69,8.861-24.991,15.144-36.563c2.155-3.97,1.442-8.885-1.751-12.079
				l-30.222-30.222l66.634-66.634l30.222,30.222c3.194,3.193,8.109,3.905,12.079,1.751c11.574-6.283,23.875-11.378,36.563-15.144
				c4.329-1.285,7.298-5.263,7.298-9.778V20.398h94.236v42.738c0,4.515,2.969,8.493,7.298,9.778
				c12.689,3.766,24.99,8.86,36.563,15.144c3.972,2.155,8.885,1.443,12.079-1.751l30.222-30.222l66.634,66.634l-30.222,30.222
				c-3.194,3.194-3.906,8.109-1.751,12.079c6.283,11.571,11.377,23.872,15.144,36.563c1.285,4.329,5.263,7.298,9.778,7.298h42.741
				V303.116z"/>
			<path d="M256,153.763c-56.373,0-102.237,45.863-102.237,102.237S199.627,358.237,256,358.237S358.237,312.373,358.237,256
				S312.373,153.763,256,153.763z M256,337.838c-45.125,0-81.838-36.713-81.838-81.838s36.713-81.838,81.838-81.838
				c45.126,0,81.838,36.713,81.838,81.838S301.126,337.838,256,337.838z"/>
		</g>
	</g>
</g>
<g>
	<g>
		<path d="M256,153.763c-56.373,0-102.237,45.863-102.237,102.237S199.627,358.237,256,358.237S358.237,312.373,358.237,256
			S312.373,153.763,256,153.763z M256,337.838c-45.125,0-81.838-36.713-81.838-81.838s36.713-81.838,81.838-81.838
			c45.126,0,81.838,36.713,81.838,81.838S301.126,337.838,256,337.838z"/>
	</g>
</g>
<g>
	<g>
		<path d="M380.849,289.219c-5.314-1.874-11.139,0.914-13.011,6.226C351.15,342.764,306.206,374.556,256,374.556
			c-5.633,0-10.199,4.566-10.199,10.199c0,5.633,4.566,10.199,10.199,10.199c58.84,0,111.515-37.264,131.075-92.724
			C388.949,296.917,386.161,291.092,380.849,289.219z"/>
	</g>
</g>
<g>
	<g>
		<path d="M384.755,245.801c-5.633,0-10.199,4.566-10.199,10.199c0,1.87-0.044,3.769-0.132,5.643
			c-0.262,5.628,4.086,10.402,9.713,10.664c0.162,0.008,0.323,0.011,0.483,0.011c5.414,0,9.925-4.259,10.18-9.724
			c0.102-2.191,0.154-4.409,0.154-6.595C394.954,250.367,390.388,245.801,384.755,245.801z"/>
	</g>
</g>
<g>
</g>
<g>
</g>
<g>
</g>
<g>
</g>
<g>
</g>
<g>
</g>
<g>
</g>
<g>
</g>
<g>
</g>
<g>
</g>
<g>
</g>
<g>
</g>
<g>
</g>
<g>
</g>
<g>
</g>
</svg>
